<svg width="66" height="69" viewBox="0 0 66 69" fill="none" xmlns="http://www.w3.org/2000/svg">
<g filter="url(#filter0_dd_136_1068)">
<path d="M59.6667 29.5466V32C59.6634 37.7504 57.8014 43.3458 54.3583 47.9515C50.9152 52.5572 46.0755 55.9266 40.561 57.557C35.0465 59.1875 29.1527 58.9917 23.7586 56.9989C18.3645 55.006 13.7591 51.3229 10.6293 46.4988C7.49942 41.6747 6.01282 35.9682 6.39118 30.2302C6.76954 24.4922 8.99259 19.0302 12.7288 14.6588C16.465 10.2875 21.5141 7.241 27.1232 5.97371C32.7323 4.70641 38.6008 5.28622 43.8534 7.62665" stroke="#34CB79" stroke-width="4" stroke-linecap="round" stroke-linejoin="round"/>
<path d="M59.6667 10.6667L33 37.36L25 29.36" stroke="#34CB79" stroke-width="4" stroke-linecap="round" stroke-linejoin="round"/>
</g>
<defs>
<filter id="filter0_dd_136_1068" x="-3" y="0" width="72" height="72" filterUnits="userSpaceOnUse" color-interpolation-filters="sRGB">
<feFlood flood-opacity="0" result="BackgroundImageFix"/>
<feColorMatrix in="SourceAlpha" type="matrix" values="0 0 0 0 0 0 0 0 0 0 0 0 0 0 0 0 0 0 127 0" result="hardAlpha"/>
<feOffset dy="4"/>
<feGaussianBlur stdDeviation="2"/>
<feComposite in2="hardAlpha" operator="out"/>
<feColorMatrix type="matrix" values="0 0 0 0 0 0 0 0 0 0 0 0 0 0 0 0 0 0 0.25 0"/>
<feBlend mode="normal" in2="BackgroundImageFix" result="effect1_dropShadow_136_1068"/>
<feColorMatrix in="SourceAlpha" type="matrix" values="0 0 0 0 0 0 0 0 0 0 0 0 0 0 0 0 0 0 127 0" result="hardAlpha"/>
<feOffset dy="4"/>
<feGaussianBlur stdDeviation="2"/>
<feComposite in2="hardAlpha" operator="out"/>
<feColorMatrix type="matrix" values="0 0 0 0 0 0 0 0 0 0 0 0 0 0 0 0 0 0 0.25 0"/>
<feBlend mode="normal" in2="effect1_dropShadow_136_1068" result="effect2_dropShadow_136_1068"/>
<feBlend mode="normal" in="SourceGraphic" in2="effect2_dropShadow_136_1068" result="shape"/>
</filter>
</defs>
</svg>
